<?xml version="1.0" standalone="no"?>
<!DOCTYPE svg PUBLIC "-//W3C//DTD SVG 1.1//EN" "http://www.w3.org/Graphics/SVG/1.1/DTD/svg11.dtd">
<svg xmlns="http://www.w3.org/2000/svg">
<defs >
<font id="Inconsolata" horiz-adv-x="505" ><font-face
    font-family="Inconsolata ExtraLight"
    units-per-em="1000"
    panose-1="0 0 5 9 0 0 0 0 0 0"
    ascent="859"
    descent="-190"
    alphabetic="0" />
<glyph unicode=" " glyph-name="space" horiz-adv-x="500" />
<glyph unicode="!" glyph-name="exclam" horiz-adv-x="500" d="M233 194L223 624Q223 635 224 645T229 661T241 668Q249 668 253 662T258 644T259 614L247 194H233ZM238 -12Q226 -12 218 -4T209 16Q209 28 217 36T238 45Q249 45 257 37T266 16Q266 5 258 -3T238 -12Z" />
<glyph unicode="&quot;" glyph-name="quotedbl" horiz-adv-x="500" d="M416 665H446Q446 605 446 569T444 509T442 462T440 407H422Q421 439 420 461T418 508T417 568T416 665ZM310 665H340Q340 605 340 569T338 509T336 462T334 407H316Q315 439 314 461T312
508T311 568T310 665Z" />
<glyph unicode="#" glyph-name="numbersign" horiz-adv-x="500" d="M290 10L312 204H161L140 14L115 13L136 203H39L43 226H142L162 421H53L56 444H167L187 624L214 626L193 445H343L363 622L391 623L371 446H462L456 422H365L344 229H443L438 206H339L317 14L290
10ZM167 227H317L338 421H187L167 227Z" />
<glyph unicode="$" glyph-name="dollar" horiz-adv-x="500" d="M251 -47V14Q215 16 185 26T129 53T80 94L106 122Q110 119 109 113T110 102Q126 83 149 69T199 47T251 37V305Q205 321 171 339T118 384T99 446Q99 483 118 515T171 568T251 591V651H283Q284 650
284 650T284 648Q284 646 281 642T277 630V592Q309 590 335 580T384 554T422 515L403 489Q398 491 398 497T392 510Q385 520 374 529T349 547T316 561T277 569V324Q323 309 359 291T418 245T440 176Q440 139 421 104T366 44T277 16V-47H251ZM277 39Q309 42 340
57T392 100T413 172Q413 209 396 231T348 268T277 297V39ZM251 331V570Q210 565 182 548T139 506T125 454Q125 420 137 400T178 365T251 331Z" />
<glyph unicode="%" glyph-name="percent" horiz-adv-x="500" d="M61 0L406 623H433L85 0H61ZM371 -10Q345 -10 323 7T287 53T274 119Q274 156 285 185T319 231T371 249Q402 249 423 232T456 185T467 119Q467 83 455 54T421 7T371 -10ZM372 11Q390 11 406 24T432
61T442 118Q442 147 434 172T409 212T370 227Q348 227 332 212T308 173T299 120Q299 90 309 66T336 26T372 11ZM140 373Q115 373 93 390T57 437T43 504Q43 541 54 570T88 616T140 634Q169 635 190 619T224 573T237 503Q237 465 224 436T189 390T140 373ZM141 395Q160
395 176 406T202 442T212 504Q212 531 206 551T190 585T167 606T139 613Q120 613 104 598T78 559T68 504Q68 472 78 447T105 409T141 395Z" />
<glyph unicode="&amp;" glyph-name="ampersand" horiz-adv-x="500" d="M410 -12L353 76Q332 53 307 33T254 2T192 -10Q152 -10 121 10T73 65T56 141Q56 173 64 201T89 254T127 299T179 336Q146 380 129 422T111 498Q111 526 118 550T141 591T178 619T228 629Q262
629 288 610T328 562T343 498Q343 474 335 451T310 407T271 367T219 328L357 118Q370 133 382 151T405 187T422 220T429 246Q429 249 430 251T433 256L461 239Q451 219 436 193T405 142T372 97L432 3L410 -12ZM199 15Q223 15 248 27T296 58T339 99L194 317Q170
305 150 287T115 247T92 201T83 152Q83 122 91 97T114 54T150 25T199 15ZM203 348Q229 363 250 380T285 415T308 453T316 492Q316 539 293 572T229 606Q202 606 182 592T150 553T138 497Q138 480 145 456T167 405T203 348Z" />
<glyph unicode="&apos;" glyph-name="quotesingle" horiz-adv-x="500" d="M235 665H265Q265 605 265 569T263 509T261 462T259 407H241Q240 439 239 461T237 508T236 568T235 665Z" />
<glyph unicode="(" glyph-name="parenleft" horiz-adv-x="500" d="M395 -104Q312 -64 256 1T171 149T142 320Q142 409 170 488T253 632T389 735L394 711Q340 683 298 641T227 547T183 437T168 317Q168 257 184 198T230 86T303 -9T400 -80L395 -104Z" />
<glyph unicode=")" glyph-name="parenright" horiz-adv-x="500" d="M133 -104L128 -80Q182 -52 225 -10T298 86T344 198T360 317Q360 378 345 436T302 547T231 641T134 711L139 735Q220 696 275 632T358 489T386 320Q386 231 358 149T273 2T133 -104Z" />
<glyph unicode="*" glyph-name="asterisk" horiz-adv-x="500" d="M123 142L102 158L232 321L62 395L75 418L240 341L238 535L267 536L260 341L428 418L436 394L268 321L397 158L377 141L250 309L123 142Z" />
<glyph unicode="+" glyph-name="plus" horiz-adv-x="500" d="M240 104V309H58V334H240V523H267V334H443V309H267V104H240Z" />
<glyph unicode="," glyph-name="comma" horiz-adv-x="500" d="M209 -168L193 -151Q231 -110 240 -85T250 -37Q250 -27 246 -21T237 -10T227 1T223 16Q223 28 231 36T251 45Q265 45 273 34T281 2Q281 -15 279 -34T269 -76T248 -121T209 -168Z" />
<glyph unicode="-" glyph-name="hyphen" horiz-adv-x="500" d="M126 301V328H376V301H126Z" />
<glyph unicode="." glyph-name="period" horiz-adv-x="500" d="M238 -12Q226 -12 218 -4T209 17Q209 28 217 36T238 45Q249 45 257 37T266 17Q266 5 258 -3T238 -12Z" />
<glyph unicode="/" glyph-name="slash" horiz-adv-x="500" d="M113 -42L88 -32L387 665L410 654L113 -42Z" />
<glyph unicode="0" glyph-name="zero" horiz-adv-x="500" d="M106 127L387 477L398 455L116 104L106 127ZM250 -11Q191 -11 150 23T88 127T67 298Q67 397 88 466T150 571T250 607Q310 607 350 571T412 466T433 298Q433 196 412 127T351 24T250 -11ZM250 13Q304
13 338 46T389 144T406 298Q406 387 390 450T339 548T250 583Q197 583 162 548T111 448T94 298Q94 208 110 144T162 47T250 13Z" />
<glyph unicode="1" glyph-name="one" horiz-adv-x="500" d="M257 0V572L113 501L102 519L264 604H284V0H257Z" />
<glyph unicode="2" glyph-name="two" horiz-adv-x="500" d="M83 19Q135 71 182 117T268 205T337 285T383 360T399 431Q399 463 390 491T363 539T319 571T258 583Q230 583 204 575T155 550T113 510Q103 497 101 490T100 474L96 468L88 474L68 486Q88 525 116 552T180
593T257 607Q307 607 345 586T404 524T426 429Q426 391 408 351T357 270T286 188T204 105T121 24H385Q402 24 409 26T422 34H429V24V0H83V19Z" />
<glyph unicode="3" glyph-name="three" horiz-adv-x="500" d="M240 -11Q188 -11 150 7T79 60L101 78L107 83L112 78Q109 73 113 68T129 51Q149 34 175 24T237 13Q290 13 323 33T373 87T390 165Q390 203 374 229T329 272T260 296T170 302V326Q218 326 255 339T318
373T356 420T369 470Q369 500 360 521T333 556T294 576T245 583Q220 583 197 576T152 556T114 524L99 543Q133 578 166 592T244 607Q290 607 324 591T377 544T396 467Q396 435 379 405T331 352T261 319Q301 316 336 296T394 242T417 162Q417 113 397 74T338 12T240
-11V-11Z" />
<glyph unicode="4" glyph-name="four" horiz-adv-x="500" d="M351 0V171H58V184L359 604H378V194H462V170H378V0H351ZM93 195H351V548L93 195Z" />
<glyph unicode="5" glyph-name="five" horiz-adv-x="500" d="M249 -11Q199 -11 152 14T74 85L95 100L102 105L106 99Q103 95 106 90T121 71Q150 42 183 28T253 13Q286 13 314 24T364 59T396 116T408 194Q408 236 397 266T366 316T317 345T255 354Q236 354 212
347T162 325T114 287L95 296L116 603H412V579H142L123 323Q140 339 162 351T209 371T257 378Q296 378 328 367T385 333T422 274T435 191Q435 127 411 82T344 13T249 -11V-11Z" />
<glyph unicode="6" glyph-name="six" horiz-adv-x="500" d="M261 -10Q202 -10 161 23T98 120T77 274Q77 386 105 461T182 573T287 610Q330 609 357 596T414 553L398 534L392 528L387 532Q389 537 385 543T368 559Q357 568 345 574T318 584T289 588Q257 588 229
576T178 538T139 474T113 382T103 262Q118 287 141 313T197 356T268 374Q301 374 330 363T381 330T416 273T429 193Q429 131 406 86T345 15T261 -10V-10ZM264 14Q291 14 316 27T360 65T390 122T402 192Q402 231 392 261T363 311T319 341T262 351Q239 351 216 341T172
313T135 272T108 225Q108 189 117 152T145 84T194 33T264 14V14Z" />
<glyph unicode="7" glyph-name="seven" horiz-adv-x="500" d="M182 0Q214 96 247 190T317 381T391 579H89V603H422V582Q394 510 366 438T312 294T260 149T211 0H182Z" />
<glyph unicode="8" glyph-name="eight" horiz-adv-x="500" d="M250 -10Q194 -10 154 10T92 65T70 147Q70 185 88 217T140 277T222 330Q191 347 163 369T118 417T100 470Q100 513 119 544T172 593T255 611Q306 611 340 594T392 545T410 473Q410 450 400 429T372
390T333 355T288 326Q320 311 346 293T391 254T420 208T431 156Q431 108 409 71T346 12T250 -10ZM252 14Q299 14 333 33T385 84T404 156Q404 182 393 205T361 249T311 287T247 318Q216 303 189 285T141 245T110 201T98 154Q98 109 116 78T168 30T252 14ZM260 338Q283
349 305 363T344 393T372 429T383 471Q383 506 369 532T326 573T253 588Q213 588 185 573T142 533T127 477Q127 451 139 431T170 394T213 364T260 338Z" />
<glyph unicode="9" glyph-name="nine" horiz-adv-x="500" d="M228 -10Q179 -10 149 4T89 47L116 64L123 69L127 63Q123 59 128 54T145 38Q160 26 178 20T222 14Q272 14 306 38T362 107T392 212T402 344Q402 422 385 475T334 555T250 583Q219 583 193 572T147 539T116
487T105 420Q105 385 115 358T143 311T189 280T250 268Q285 267 314 282T369 322T412 376L408 329Q389 308 366 289T315 257T249 244Q212 244 181 255T127 289T91 344T78 419Q78 463 91 497T127 556T181 594T247 607Q303 607 344 579T407 495T429 353Q429 227 405
148T337 30T228 -10V-10Z" />
<glyph unicode=":" glyph-name="colon" horiz-adv-x="500" d="M238 338Q228 338 219 346T210 365Q210 377 219 385T239 393Q249 393 258 385T267 365Q267 355 259 347T238 338ZM238 -12Q227 -12 219 -4T210 15Q210 27 219 35T239 43Q249 43 258 35T267 15Q267
5 259 -3T238 -12Z" />
<glyph unicode=";" glyph-name="semicolon" horiz-adv-x="500" d="M203 -168L187 -151Q225 -110 234 -85T244 -37Q244 -27 240 -21T231 -10T221 1T217 16Q217 24 220 30T230 41T245 45Q259 45 267 34T275 2Q275 -20 271 -47T251 -105T203 -168ZM238 338Q228 338
219 346T210 365Q210 377 219 385T238 393Q249 393 258 385T267 365Q267 355 259 347T238 338Z" />
<glyph unicode="&lt;" glyph-name="less" horiz-adv-x="500" d="M451 47L45 309V331L448 567V539L73 320L451 75V47Z" />
<glyph unicode="=" glyph-name="equal" horiz-adv-x="500" d="M60 407V432H441V407H60ZM60 200V225H441V200H60Z" />
<glyph unicode="&gt;" glyph-name="greater" horiz-adv-x="500" d="M50 47V78L426 319L52 539V567L456 331V309L50 47Z" />
<glyph unicode="?" glyph-name="question" horiz-adv-x="500" d="M247 226Q247 263 257 288T283 331T317 365T351 400T377 444T387 506Q387 538 378 562T352 605T310 632T254 641Q208 641 182 628T133 586Q124 572 122 565T121 549L117 543L109 549L84 561Q106
594 126 617T177 652T257 665Q303 665 338 646T394 592T414 509Q414 469 404 441T377 394T343 358T308 324T282 283T271 226V185H247V226ZM261 -12Q249 -12 241 -4T232 17Q232 28 240 36T261 45Q272 45 280 37T289 17Q289 5 281 -3T261 -12Z" />
<glyph unicode="@" glyph-name="at" horiz-adv-x="500" d="M288 -11Q239 -11 195 8T116 67T62 168T42 313Q42 396 61 456T114 556T187 614T271 633Q311 633 343 620T398 579T433 509T445 408V186H420V264Q411 224 383 203T308 182Q277 182 250 196T207 238T190
303Q190 337 204 363T247 408T318 435T418 439Q418 489 401 527T350 588T268 610Q232 610 197 593T132 539T85 450T67 324Q67 243 84 185T132 88T204 31T294 12Q326 12 357 23T412 53L425 30Q394 7 362 -2T288 -11ZM317 205Q343 205 362 217T394 254T413 320T420
416Q356 423 310 411T240 372T215 307Q215 259 244 232T317 205Z" />
<glyph unicode="A" glyph-name="A" horiz-adv-x="500" d="M377 212H119L125 236H368L377 212ZM250 569L65 0H36L246 634H254L464 0H434L250 569Z" />
<glyph unicode="B" glyph-name="B" horiz-adv-x="500" d="M73 0V623H230Q284 623 321 612T382 581T416 533T427 472Q427 437 412 407T369 355T301 325Q332 322 359 308T407 273T440 227T452 175Q452 136 440 104T401 48T332 13T229 0H73ZM100 24H241Q301 24 341
40T402 89T425 171Q426 203 407 235T344 290T224 312H100V24ZM100 336H220Q290 336 329 356T384 407T400 466Q400 497 392 521T364 563T312 590T231 599H100V336Z" />
<glyph unicode="C" glyph-name="C" horiz-adv-x="500" d="M285 -10Q234 -10 192 8T118 66T69 165T51 308Q51 381 64 435T99 527T151 586T214 618T281 628Q349 628 392 595T459 505L438 495L431 492L428 498Q432 503 429 509T417 529Q391 568 356 586T279 604Q241
603 205 589T141 541T95 452T78 313Q78 238 92 182T133 89T197 33T282 14Q317 14 344 24T392 55T429 104L450 92Q422 42 384 16T285 -10V-10Z" />
<glyph unicode="D" glyph-name="D" horiz-adv-x="500" d="M74 -1V623H199Q253 623 289 613T350 585T396 538Q417 510 428 475T445 399T450 308Q449 233 435 176T390 79T310 19T187 -1H74ZM101 23H184Q273 23 325 55T400 151T423 304Q423 406 402 471T331 567T195
599H101V23Z" />
<glyph unicode="E" glyph-name="E" horiz-adv-x="500" d="M74 0V624H421V600H101V337H366V313H101V24H418V0H74Z" />
<glyph unicode="F" glyph-name="F" horiz-adv-x="500" d="M93 0V624H417V600H118V347H361V323H118V0H93Z" />
<glyph unicode="G" glyph-name="G" horiz-adv-x="500" d="M277 -10Q203 -10 154 29T80 139T56 304Q55 385 68 441T105 535T157 593T216 622T274 630Q311 630 341 617T396 580T438 525L424 510L418 504L413 509Q415 514 413 520T400 540Q382 562 362 576T320 598T273
606Q246 606 219 598T168 569T124 516T94 435T83 319Q83 248 94 192T130 96T190 35T277 14Q296 14 314 18T350 29T384 48T415 72V258H282V282H440V55Q396 23 360 7T277 -10V-10Z" />
<glyph unicode="H" glyph-name="H" horiz-adv-x="500" d="M60 623H86H94V616Q89 614 88 608T87 584V355H404V623H429H437V616Q432 614 431 608T430 584V0H403V331H87V0H60V623Z" />
<glyph unicode="I" glyph-name="I" horiz-adv-x="500" d="M101 0V24H225V599H108V623H377V599H252V24H383V0H101Z" />
<glyph unicode="J" glyph-name="J" horiz-adv-x="500" d="M196 -11Q152 -11 115 6T49 58L66 74L72 80L77 75Q75 70 79 65T95 48Q118 30 144 21T196 11Q235 11 261 31T300 96T313 208V599H192V623H437V599H340V209Q341 149 331 107T302 39T256 1T196 -11V-11Z" />
<glyph unicode="K" glyph-name="K" horiz-adv-x="500" d="M136 333L89 290V0H62V623H88H96V616Q91 614 90 608T89 584V320L404 626Q406 625 408 625T414 624T420 623T425 623H435L156 351L451 0L420 -3L136 333Z" />
<glyph unicode="L" glyph-name="L" horiz-adv-x="500" d="M86 623H112H120V616Q115 614 114 608T113 584V24H419V0H86V623Z" />
<glyph unicode="M" glyph-name="M" horiz-adv-x="500" d="M61 0V623H76L250 306L427 624H440V0H414V549L258 274H240L87 551V0H61Z" />
<glyph unicode="N" glyph-name="N" horiz-adv-x="500" d="M70 623H93L400 64V623H426H434V616Q429 614 428 608T427 584V0H408L97 564V0H70V623Z" />
<glyph unicode="O" glyph-name="O" horiz-adv-x="500" d="M250 -11Q184 -11 139 26T70 134T47 308Q47 407 70 478T138 588T250 627Q317 627 362 589T430 479T453 308Q453 206 430 135T362 26T250 -11ZM250 13Q308 13 347 47T406 148T426 308Q426 399 406 465T347
567T250 603Q193 603 154 567T94 465T74 308Q74 214 94 148T153 48T250 13Z" />
<glyph unicode="P" glyph-name="P" horiz-adv-x="500" d="M79 0V623H259Q319 623 358 602T416 545T436 459Q436 423 426 393T394 341T340 307T264 295H106V0H79ZM106 319H256Q315 319 348 337T395 388T409 459Q409 499 394 530T346 580T257 599H106V319Z" />
<glyph unicode="Q" glyph-name="Q" horiz-adv-x="500" d="M401 -125Q352 -127 322 -124T275 -107T252 -70T246 -7Q196 -4 151 33T78 139T49 308Q49 401 67 463T115 562T180 614T251 630Q293 630 330 612T394 555T437 456T451 311Q451 242 438 185T401 86T343 20T267
-7Q269 -47 278 -67T308 -95T361 -102L442 -98L440 -125H401ZM256 16Q291 16 321 36T375 95T411 187T424 307Q424 382 413 438T379 531T324 587T251 606Q215 606 184 590T128 539T90 450T76 319Q76 222 101 154T167 51T256 16Z" />
<glyph unicode="R" glyph-name="R" horiz-adv-x="500" d="M76 0V623H240Q309 623 350 604T409 547T427 455Q427 415 409 381T358 325T287 297L444 0H416L258 295H103V0H76ZM103 319H248Q325 319 362 359T400 455Q400 501 386 533T338 582T248 599H103V319Z" />
<glyph unicode="S" glyph-name="S" horiz-adv-x="500" d="M259 -10Q198 -10 154 10T72 69L94 89L100 95L105 90Q103 85 106 79T122 62Q148 40 184 28T260 15Q295 15 322 25T369 55T398 101T408 157Q408 176 405 192T392 224T365 253T321 282T256 311Q203 332 166
357T111 412T92 477Q92 523 112 557T170 611T262 631Q296 631 325 622T377 597T415 557L400 540L394 534L389 538Q391 544 388 550T373 568Q351 588 322 597T253 608Q223 608 199 599T156 572T129 532T119 482Q119 463 124 447T141 415T173 385T222 355T292 324Q330
309 357 292T401 254T426 211T435 163Q435 116 415 77T355 14T259 -10V-10Z" />
<glyph unicode="T" glyph-name="T" horiz-adv-x="500" d="M230 0V600H31V624H463V600H257V0H230Z" />
<glyph unicode="U" glyph-name="U" horiz-adv-x="500" d="M251 -11Q163 -11 117 48T70 215V623H97H105V616Q100 614 99 608T98 584V214Q98 119 137 66T252 13Q329 13 368 63T408 217V623H434V218Q434 139 413 89T352 14T251 -11V-11Z" />
<glyph unicode="V" glyph-name="V" horiz-adv-x="500" d="M242 -4L45 624H73L254 38L433 623H458L264 -4H242Z" />
<glyph unicode="W" glyph-name="W" horiz-adv-x="500" d="M137 0L37 623H65L148 71L249 577H271L359 80L443 623H468L369 0H352L260 520L156 0H137Z" />
<glyph unicode="X" glyph-name="X" horiz-adv-x="500" d="M61 0L232 322L64 624H93L248 345L402 624H429L265 322L448 0H419L248 299L88 0H61Z" />
<glyph unicode="Y" glyph-name="Y" horiz-adv-x="500" d="M245 0V276L48 623H78L257 304L424 623H453L271 276V0H245Z" />
<glyph unicode="Z" glyph-name="Z" horiz-adv-x="500" d="M70 18L395 599H82V623H427V603L103 24H399Q416 24 423 26T436 34H443V24V0H70V18Z" />
<glyph unicode="[" glyph-name="bracketleft" horiz-adv-x="500" d="M149 -89V670H417V645H175V-67H418V-89H149Z" />
<glyph unicode="\" glyph-name="backslash" horiz-adv-x="500" d="M388 -42L89 652L113 665L412 -30L388 -42Z" />
<glyph unicode="]" glyph-name="bracketright" horiz-adv-x="500" d="M400 -89H131V-67H374V645H132V670H400V-89Z" />
<glyph unicode="^" glyph-name="asciicircum" horiz-adv-x="500" d="M127 355L105 367L248 623H266L393 368L371 355L256 583L127 355Z" />
<glyph unicode="_" glyph-name="underscore" horiz-adv-x="500" d="M45 -62V-37H456V-62H45Z" />
<glyph unicode="`" glyph-name="grave" horiz-adv-x="500" d="M267 512L162 646L187 666L280 523L267 512Z" />
<glyph unicode="a" glyph-name="a" horiz-adv-x="500" d="M211 -11Q144 -11 109 26T73 115Q73 149 88 175T130 220T195 248T279 258Q296 258 317 258T362 256T407 251L413 229Q395 232 372 233T325 236T285 237Q238 237 203 229T145 204T110 165T98 114Q98 91
105 72T126 39T163 18T216 10Q261 10 295 25T353 68T389 134T401 219Q401 295 389 343T344 414T253 437Q217 437 184 423T118 376L101 392Q133 424 169 441T252 459Q298 459 330 447T383 408T414 340T424 239V0H399V114Q392 88 377 66T337 26T281 -1T211 -11Z"
/>
<glyph unicode="b" glyph-name="b" horiz-adv-x="500" d="M259 -11Q211 -11 178 10T125 59T98 109L90 0H73V665H97H105V658Q100 656 99 650T98 626V344Q107 368 123 389T160 426T208 451T266 460Q301 460 333 444T390 397T429 324T444 229Q444 163 429 118T387
44T328 2T259 -11V-11ZM262 12Q292 12 320 23T371 60T406 126T419 225Q419 276 406 315T371 382T322 423T267 437Q228 438 189 418T124 352T98 223Q98 160 114 119T156 55T209 22T262 12V12Z" />
<glyph unicode="c" glyph-name="c" horiz-adv-x="500" d="M275 -11Q227 -11 189 7T124 57T83 132T68 228Q68 279 84 321T128 394T195 441T278 458Q339 458 379 440T447 381L432 366L426 360L421 365Q423 370 420 376T405 394Q384 414 355 424T274 435Q238 435
206 421T148 380T108 316T93 233Q93 182 106 141T145 71T204 27T279 12Q306 12 332 20T383 43T425 80L440 61Q406 25 365 7T275 -11V-11Z" />
<glyph unicode="d" glyph-name="d" horiz-adv-x="500" d="M244 -10Q208 -10 174 4T114 49T71 124T55 231Q55 293 72 336T117 407T180 448T251 461Q287 461 318 445T371 403T403 344V665H427H435V658Q430 656 429 650T428 626L429 71Q429 53 430 36T439 0L413 1Q408
13 406 32T404 71T403 102Q396 78 376 52T324 8T244 -10V-10ZM249 13Q287 13 315 28T364 73T394 142T404 231Q404 309 380 354T320 418T252 438Q219 438 189 426T134 390T95 327T81 234Q81 155 104 106T166 35T249 13V13Z" />
<glyph unicode="e" glyph-name="e" horiz-adv-x="500" d="M264 -10Q218 -10 181 6T117 53T76 127T61 223Q61 280 75 324T116 399T176 444T250 460Q289 460 322 447T380 409T419 344T433 253Q433 245 433 243T432 232H85Q86 178 98 138T134 69T190 27T264 13Q297
13 322 21T367 45T404 80L423 66Q404 43 380 26T327 -1T264 -10ZM87 255H408Q408 300 397 334T365 391T316 425T254 437Q214 437 184 423T132 384T100 326T87 255Z" />
<glyph unicode="f" glyph-name="f" horiz-adv-x="500" d="M184 417H63V440H184V488Q184 550 200 590T248 651T330 671Q373 671 410 656T473 608L460 590L455 583L449 588Q451 593 447 599T431 616Q409 633 385 640T332 648Q291 648 264 632T223 581T209 488V440H381V417H209V0H184V417Z"
/>
<glyph unicode="g" glyph-name="g" horiz-adv-x="500" d="M249 -172Q195 -172 158 -164T96 -140T61 -103T50 -56Q50 -24 60 -3T89 33T129 63L151 54Q132 43 115 29T86 -5T75 -57Q75 -78 84 -94T114 -123T167 -142T248 -149Q305 -149 343 -135T400 -96T421 -41Q423
-14 414 3T376 28T285 36Q250 36 220 38T165 44T123 58T96 80T86 114Q86 137 101 154T142 194L156 181Q139 166 129 157T115 139T110 119Q110 92 134 80T199 63T295 59Q342 59 372 53T418 36T440 6T446 -38Q446 -65 433 -89T395 -131T334 -161T249 -172ZM238 149Q194
149 159 169T104 224T84 304Q84 346 104 381T159 437T238 458Q283 458 317 437T372 381T392 304Q392 260 374 225T321 169T238 149ZM238 172Q279 172 308 187T352 232T368 302Q368 343 351 372T304 418T238 435Q203 435 174 419T127 373T109 304Q109 260 126 231T172
187T238 172ZM362 390L350 407Q370 435 396 445T462 453L463 433Q428 437 405 428T362 390Z" />
<glyph unicode="h" glyph-name="h" horiz-adv-x="500" d="M86 665H110H118V658Q113 656 112 650T111 626V338Q129 375 154 401T211 442T283 457Q323 457 354 443T402 388T420 269V0H395V267Q395 333 383 369T345 420T275 434Q250 434 226 425T181 399T145 360T120
311T111 255V0H86V665Z" />
<glyph unicode="i" glyph-name="i" horiz-adv-x="500" d="M110 0V23H240V426H116V449H265V23H386V0H110ZM505 579Q495 579 488 586T480 604Q480 615 487 622T506 630Q516 630 523 623T531 604Q531 594 524 587T505 579Z" />
<glyph unicode="j" glyph-name="j" horiz-adv-x="500" d="M194 -174Q151 -174 113 -158T48 -110L63 -90L68 -83L74 -88Q73 -93 76 -99T91 -117Q114 -134 139 -142T193 -151Q246 -151 276 -130T320 -70T334 18V426H126V449H359V22Q359 -29 346 -73T296 -146T194
-174V-174ZM327 579Q317 579 310 586T302 604Q302 615 309 622T328 630Q338 630 345 623T353 604Q353 594 346 587T327 579Z" />
<glyph unicode="k" glyph-name="k" horiz-adv-x="500" d="M184 252L111 193V0H86V665H110H118V658Q113 656 112 650T111 626V223L392 450Q395 449 398 449T404 448T410 448T416 448H427L203 269L449 0L419 -4L184 252Z" />
<glyph unicode="l" glyph-name="l" horiz-adv-x="500" d="M89 0V23H238V642H95V665H263V23H411V0H89Z" />
<glyph unicode="m" glyph-name="m" horiz-adv-x="500" d="M54 0V449H79V391Q91 411 106 426T139 451T178 460Q197 460 214 452T244 425T262 375Q274 400 289 419T324 449T369 460Q387 460 402 453T429 430T446 394T453 344V0L428 -1V333Q428 372 419 395T396 428T365
438Q340 438 317 420T280 374T266 321V0H241V325Q241 393 224 415T173 438Q160 438 144 431T113 408T89 371T79 320V0H54Z" />
<glyph unicode="n" glyph-name="n" horiz-adv-x="500" d="M86 0V449H111V338Q124 376 149 402T208 443T283 457Q319 457 350 442T400 386T420 269V0H395V267Q395 331 382 367T342 418T275 434Q238 434 208 420T157 381T123 324T111 255V0H86Z" />
<glyph unicode="o" glyph-name="o" horiz-adv-x="500" d="M250 -8Q188 -8 146 21T81 103T59 225Q59 295 81 347T145 429T250 459Q312 459 354 430T419 348T441 225Q441 156 419 104T355 22T250 -8ZM250 15Q305 15 342 42T397 118T416 226Q416 291 395 338T337
410T250 436Q197 436 160 409T103 335T84 226Q84 163 103 116T159 42T250 15Z" />
<glyph unicode="p" glyph-name="p" horiz-adv-x="500" d="M73 -167V449H97V344Q109 375 131 401T188 443T265 459Q300 459 332 445T390 403T429 332T444 232Q444 167 430 121T390 45T332 2T263 -12Q227 -12 194 2T135 44T98 109V-167H73ZM258 10Q290 10 319 22T370
61T406 129T419 229Q419 299 398 344T342 413T262 436Q226 436 196 424T144 384T110 315T97 213Q97 164 108 129T138 71T178 35T221 16T258 10Z" />
<glyph unicode="q" glyph-name="q" horiz-adv-x="500" d="M402 -167V102Q389 73 370 48T321 7T240 -10Q200 -10 167 7T108 56T69 132T55 230Q55 284 69 326T108 399T167 444T243 460Q274 460 301 450T350 423T386 386T406 344V457H427V-167H402ZM242 13Q275 13
304 26T355 66T389 136T402 241Q402 295 388 332T351 393T299 426T243 437Q207 437 178 423T126 383T92 319T80 233Q80 184 91 144T124 74T176 29T242 13Z" />
<glyph unicode="r" glyph-name="r" horiz-adv-x="500" d="M129 449H156L153 316L145 315Q151 348 167 375T208 421T260 450T316 460Q348 460 386 448T448 410L434 391L429 384L423 389Q425 394 421 399T402 414Q382 427 362 432T321 437Q284 437 253 423T200 383T166
323T154 248V-1H129V449Z" />
<glyph unicode="s" glyph-name="s" horiz-adv-x="500" d="M253 -10Q217 -9 184 -2T122 22T67 62L83 81L89 87L94 83Q93 78 96 73T113 56Q140 37 177 25T255 13Q307 13 340 24T389 58T405 114Q405 134 395 150T365 179T317 203T254 221Q208 232 172 249T114 291T92
348Q92 381 111 406T167 446T254 460Q285 460 309 456T353 445T390 426T422 398L407 377L402 370L396 374Q398 380 394 386T378 404Q357 421 328 429T257 437Q185 437 151 413T117 349Q117 322 135 302T188 267T269 241Q318 230 354 213T410 173T430 117Q430 79
413 50T357 5T253 -10V-10Z" />
<glyph unicode="t" glyph-name="t" horiz-adv-x="500" d="M299 -7Q255 -7 230 8T194 54T182 134T182 248L194 579L219 582L227 583L228 576Q223 573 221 567T219 543L215 442L214 428L207 244Q204 160 208 111T234 40T301 17Q334 16 368 28T430 61L444 42Q410
17 374 5T299 -7V-7ZM70 447H399V424H70V447Z" />
<glyph unicode="u" glyph-name="u" horiz-adv-x="500" d="M234 -11Q209 -11 187 -4T145 18T111 57T90 114T82 191L83 449H107V191Q107 140 117 106T146 51T190 22T247 13Q279 13 306 24T353 59T385 117T397 197V449H422V92Q422 74 423 46T432 0H407Q402 12 400
28T397 62T396 89Q387 71 375 54T345 22T299 -2T234 -11Z" />
<glyph unicode="v" glyph-name="v" horiz-adv-x="500" d="M235 0L50 449H77L255 19H245L354 268Q378 322 393 365T417 449H445Q435 407 418 361T375 257L263 0H235Z" />
<glyph unicode="w" glyph-name="w" horiz-adv-x="500" d="M128 -1L36 449H62L144 44L243 414H263L372 38Q386 125 397 189T417 301T429 380T434 434V449H461Q451 372 440 298T415 149T385 -1H357L253 359L153 -1H128Z" />
<glyph unicode="x" glyph-name="x" horiz-adv-x="500" d="M67 0L234 232L70 449H101L249 253L387 449H416L264 234L436 0H405L249 213L96 0H67Z" />
<glyph unicode="y" glyph-name="y" horiz-adv-x="500" d="M123 -174Q91 -174 67 -164T22 -135L42 -117L48 -111L53 -116Q51 -121 56 -125T74 -140Q85 -146 99 -148T127 -151Q154 -151 174 -141T214 -97T258 5L354 275Q370 320 384 361T403 449H432Q425 403 410
360T378 270L264 -52Q238 -122 204 -148T123 -174V-174ZM61 449H88L268 0L254 -32L61 449Z" />
<glyph unicode="z" glyph-name="z" horiz-adv-x="500" d="M70 19L375 425H91V449H406V428L103 23H386Q403 23 410 25T423 33H430V23V0H70V19Z" />
<glyph unicode="{" glyph-name="braceleft" horiz-adv-x="500" d="M371 -95Q299 -95 256 -78T195 -23T179 80L183 180Q183 231 170 258T132 296T73 307V307V333H92Q116 333 137 344T171 383T185 455L183 527Q183 585 202 623T257 681T345 701H388V675H326Q277
675 244 639T211 538L213 468Q213 431 206 401T183 350T137 319Q166 312 182 292T204 240T211 165L207 81Q207 22 221 -11T269 -57T356 -70H387V-95H371Z" />
<glyph unicode="|" glyph-name="bar" horiz-adv-x="500" d="M237 -151V652H264V-151H237Z" />
<glyph unicode="}" glyph-name="braceright" horiz-adv-x="500" d="M91 -95H75V-70H106Q161 -70 193 -57T240 -11T255 81L251 165Q251 208 257 240T280 292T325 319Q296 329 280 350T256 401T249 468L251 538Q251 602 218 638T136 675H74V701H117Q169 701 205
682T260 624T279 527L277 455Q277 410 290 383T325 345T370 333H389V307V307Q356 307 331 297T293 259T279 180L283 80Q286 16 268 -22T206 -78T91 -95Z" />
<glyph unicode="~" glyph-name="asciitilde" horiz-adv-x="500" d="M348 281Q324 281 304 289T267 308T232 327T194 335Q161 335 142 324T106 289L84 300Q97 318 110 331T143 352T194 360Q218 360 237 352T272 333T306 314T344 306Q373 306 394 318T434 358L454
344Q442 326 427 312T392 289T348 281Z" />
<glyph unicode="&#xa0;" glyph-name="uni00A0" horiz-adv-x="500" />
<glyph unicode="&#xa1;" glyph-name="exclamdown" horiz-adv-x="500" d="M233 393H247L259 -27Q259 -44 258 -56T253 -75T241 -81Q233 -81 229 -75T224 -58T223 -37L233 393ZM238 599Q249 599 257 591T266 571Q266 559 258 551T238 542Q226 542 218 550T209 571Q209
582 217 590T238 599Z" />
<glyph unicode="&#xa2;" glyph-name="cent" horiz-adv-x="500" d="M225 -73H199L294 623H317L225 -73ZM275 32Q227 32 189 50T124 100T83 175T68 271Q68 322 84 364T128 437T195 484T278 501Q339 501 379 483T447 424L432 409L426 403L421 408Q423 413 420 419T405
437Q384 457 355 467T274 478Q238 478 206 464T148 423T108 359T93 276Q93 225 106 184T145 114T204 70T279 55Q306 55 332 63T383 86T425 123L440 104Q406 68 365 50T275 32V32Z" />
<glyph unicode="&#xa3;" glyph-name="sterling" horiz-adv-x="500" d="M75 -8L66 11Q107 31 129 62T159 134T168 222Q168 241 163 275T150 340H72V364H142Q138 381 135 404T132 442Q132 497 151 537T205 600T288 623Q325 623 355 611T413 572L393 553Q376 573
352 586T287 599Q246 599 218 580T174 527T159 443Q159 423 162 404T170 364H317V340H178Q185 312 190 281T195 224Q195 199 191 166T177 103T148 51Q175 58 204 53T263 38T318 18T367 9Q392 9 409 18T449 47L464 27Q440 6 416 -4T366 -15Q352 -15 330 -8T280 7T227
23T180 30Q158 30 134 21T75 -8Z" />
<glyph unicode="&#xa4;" glyph-name="currency" horiz-adv-x="500" d="M95 173L79 192L135 249Q119 271 111 295T103 344Q103 370 111 395T137 440L79 499L95 518L153 460Q175 478 199 486T251 495Q277 495 301 487T347 461L405 518L421 499L365 443Q382 421 390
397T399 344Q399 318 391 293T366 247L421 192L405 173L348 229Q327 211 302 202T251 193Q225 193 200 202T152 230L95 173ZM250 218Q291 218 318 237T359 285T373 346Q373 380 359 408T318 453T250 470Q212 470 185 453T143 408T128 346Q128 314 142 285T183 237T250
218Z" />
<glyph unicode="&#xa5;" glyph-name="yen" horiz-adv-x="500" d="M251 224H91V247H253L251 224ZM266 247H420V224H266V247ZM251 99H91V121H251V99ZM266 121H420V99H266V121ZM272 0H245V302L49 625H79L259 326L426 623H455L272 299V0Z" />
<glyph unicode="&#xa6;" glyph-name="brokenbar" horiz-adv-x="500" d="M237 310V652H264V310H237ZM237 -151V181H264V-151H237Z" />
<glyph unicode="&#xa7;" glyph-name="section" horiz-adv-x="500" d="M238 -52Q189 -52 145 -33T73 24L98 49Q104 46 104 43T104 35T115 20T148 -4Q161 -11 176 -16T208 -23T236 -25Q265 -25 290 -17T334 7T363 42T374 86Q374 113 358 132T311 167T231 202Q181
222 149 240T101 278T86 323Q86 341 95 357T120 386T154 408T188 423Q150 446 126 469T101 534Q101 571 122 601T179 650T258 669Q288 669 316 660T367 634T404 592L386 564Q384 566 383 568T380 574Q375 591 364 604T336 626T299 640T257 645Q221 645 192 629T146
589T129 538Q129 509 143 490T184 457T250 428T339 394Q358 386 371 375T394 351T407 325T412 297Q412 274 399 254T366 217T323 191Q360 168 380 148T401 93Q401 61 389 35T354 -11T302 -41T238 -52ZM304 202Q321 210 340 224T372 258T385 296Q385 318 376 333T348
360T305 382T249 403L212 415Q198 411 181 403T149 383T123 358T113 330Q113 315 121 302T145 276T184 252T237 228Q257 220 273 214T304 202Z" />
<glyph unicode="&#xa8;" glyph-name="dieresis" horiz-adv-x="500" d="M174 589Q164 589 157 596T149 614Q149 625 156 632T174 640Q184 640 192 633T200 614Q200 604 193 597T174 589ZM328 589Q318 589 311 596T304 614Q304 625 311 632T328 640Q338 640 346
633T355 614Q355 604 347 597T328 589Z" />
<glyph unicode="&#xa9;" glyph-name="copyright" horiz-adv-x="500" d="M266 125Q228 125 195 145T141 200T120 276Q120 307 132 333T165 379T210 410T259 421Q308 421 341 399T384 339L360 330Q357 336 356 341T353 353T345 367T326 383Q316 390 299 393T264
397Q244 397 224 389T186 364T158 326T147 275Q147 237 164 209T209 165T270 149Q287 149 305 156T338 173T361 196L381 184Q360 156 329 141T266 125ZM260 20Q211 20 168 40T91 95T39 176T20 275Q20 328 38 374T90 456T166 511T259 531Q308 531 351 511T427 456T480
375T499 275Q499 234 488 196T455 126T404 70T338 33T260 20ZM260 42Q309 42 349 60T417 111T461 185T477 276Q477 323 460 365T413 439T344 491T260 510Q216 510 177 492T107 441T60 366T42 275Q42 228 59 186T107 112T176 61T260 42Z" />
<glyph unicode="&#xaa;" glyph-name="ordfeminine" horiz-adv-x="500" d="M221 259Q171 259 144 287T117 356Q117 393 137 417T192 455T271 468Q283 468 299 468T331 466T363 463L366 441Q354 443 338 444T305 446T275 447Q232 447 203 437T158 406T143 356Q143
333 152 316T179 289T225 280Q257 280 282 291T323 324T348 374T357 439Q357 497 348 532T315 583T250 599Q224 599 200 589T153 555L138 572Q161 596 188 609T250 622Q295 622 324 606T367 552T381 452V267H354V347Q348 327 336 311T307 284T269 266T221 259ZM81
202H420V178H81V202Z" />
<glyph unicode="&#xab;" glyph-name="guillemotleft" horiz-adv-x="500" d="M224 70L72 234V246L216 388L231 373L95 240L239 86L224 70ZM415 70L264 234V246L407 388L421 372L287 240L431 86L415 70Z" />
<glyph unicode="&#xac;" glyph-name="logicalnot" horiz-adv-x="500" d="M383 159V301H98V326H407V159H383Z" />
<glyph unicode="&#xad;" glyph-name="uni00AD" horiz-adv-x="500" d="M126 301V328H376V301H126Z" />
<glyph unicode="&#xae;" glyph-name="registered" horiz-adv-x="500" d="M348 130L282 264H186V130H162V430H258Q299 430 323 419T359 388T370 345Q370 311 351 294T307 269L375 134L348 130ZM186 288H265Q309 288 328 303T347 346Q347 375 325 390T262 406H186V288ZM260
20Q211 20 168 40T91 95T39 176T20 275Q20 328 38 374T90 456T166 511T259 531Q308 531 351 511T427 456T480 375T499 275Q499 234 488 196T455 126T404 70T338 33T260 20ZM260 42Q309 42 349 60T417 111T461 185T477 276Q477 323 460 365T413 439T344 491T260
510Q216 510 177 492T107 441T60 366T42 275Q42 228 59 186T107 112T176 61T260 42Z" />
<glyph unicode="&#xaf;" glyph-name="overscore" horiz-adv-x="500" d="M133 594V614H370V594H133Z" />
<glyph unicode="&#xb0;" glyph-name="degree" horiz-adv-x="500" d="M256 362Q221 362 192 379T146 425T129 491Q129 518 139 542T167 583T208 611T256 621Q291 621 319 604T365 557T383 491Q383 456 366 427T320 380T256 362ZM256 390Q286 390 308 404T343 441T355
491Q355 519 343 542T309 579T258 593Q230 593 207 579T171 542T157 491Q157 465 170 442T206 404T256 390Z" />
<glyph unicode="&#xb1;" glyph-name="plusminus" horiz-adv-x="500" d="M240 158V363H58V388H240V577H267V388H443V363H267V158H240ZM56 26V53H446V26H56Z" />
<glyph unicode="&#xb2;" glyph-name="uni00B2" horiz-adv-x="500" d="M133 265Q178 306 217 340T285 405T330 462T347 518Q347 545 336 564T304 594T255 605Q231 605 209 597T170 573Q160 560 157 553T154 538L150 533L142 539L123 552Q143 587 177 607T255 627Q290
627 316 614T358 576T373 517Q373 486 355 455T306 394T241 332T170 268H331Q348 268 355 270T368 278H375V268V246H133V265Z" />
<glyph unicode="&#xb3;" glyph-name="uni00B3" horiz-adv-x="500" d="M243 239Q209 239 181 250T130 284L149 301L155 307L160 301Q158 297 162 293T180 277Q192 270 207 266T241 261Q292 261 316 286T341 350Q341 381 323 399T273 426T198 432V454Q232 454 256
461T296 481T319 508T327 539Q327 562 317 576T288 598T247 605Q223 605 200 597T159 571L144 587Q167 609 192 618T246 627Q295 627 323 604T352 537Q352 506 330 481T271 446Q297 443 318 431T353 398T367 349Q367 318 353 293T312 254T243 239V239Z" />
<glyph unicode="&#xb4;" glyph-name="acute" horiz-adv-x="500" d="M242 527L229 538L322 681L347 661L242 527Z" />
<glyph unicode="&#xb5;" glyph-name="uni00B5" horiz-adv-x="500" d="M32 -176Q32 -157 34 -117T39 -28T44 70T49 154T51 201V449H75V184Q75 133 85 100T114 48T154 20T199 12Q243 12 271 36T313 102T327 195V449H351V110Q351 75 359 54T382 22T416 12Q430 12
443 20T465 43L471 52L486 36Q470 13 452 1T410 -11Q386 -11 367 3T338 40T327 90Q318 56 297 34T249 0T194 -11Q163 -11 137 1T92 36T65 94Q65 60 64 27T62 -39T59 -107T57 -176H32Z" />
<glyph unicode="&#xb6;" glyph-name="paragraph" horiz-adv-x="500" d="M261 -67V325Q222 325 188 339T128 377T88 434T73 504Q73 547 96 583T173 641T318 664H407V-67H380V637H288V-67H261Z" />
<glyph unicode="&#xb7;" glyph-name="middot" horiz-adv-x="500" d="M239 302Q227 302 219 310T210 331Q210 342 218 350T239 359Q250 359 258 351T267 331Q267 319 259 311T239 302Z" />
<glyph unicode="&#xb8;" glyph-name="cedilla" horiz-adv-x="500" d="M267 -192Q244 -192 225 -188T186 -177L197 -154Q213 -161 234 -165T280 -169Q312 -169 330 -157T349 -123Q349 -104 329 -93T279 -82H260L270 0H292L285 -59Q318 -61 337 -71T366 -94T375
-119Q375 -151 349 -171T267 -192Z" />
<glyph unicode="&#xb9;" glyph-name="uni00B9" horiz-adv-x="500" d="M250 246V595L153 557L145 572L257 625H275V246H250Z" />
<glyph unicode="&#xba;" glyph-name="ordmasculine" horiz-adv-x="500" d="M250 261Q205 261 173 283T124 345T107 441Q107 497 124 537T173 600T250 622Q296 622 327 600T376 538T393 441Q393 386 376 346T328 283T250 261ZM250 284Q288 284 314 304T353 359T367
442Q367 492 353 527T312 580T250 599Q213 599 187 580T148 525T134 442Q134 393 147 358T187 303T250 284ZM81 202H420V178H81V202Z" />
<glyph unicode="&#xbb;" glyph-name="guillemotright" horiz-adv-x="500" d="M294 70L279 86L423 240L287 373L302 388L446 246V234L294 70ZM103 70L87 86L231 240L97 372L111 388L254 246V234L103 70Z" />
<glyph unicode="&#xbc;" glyph-name="onequarter" horiz-adv-x="500" d="M107 380V652L33 625L26 640L114 681H132V380H107ZM415 -70V9H262V25L421 231H440V29H486V9H440V-70H415ZM293 30H415V188L293 30ZM123 -41L104 -31L402 661L422 650L123 -41Z" />
<glyph unicode="&#xbd;" glyph-name="onehalf" horiz-adv-x="500" d="M107 380V652L33 625L26 640L114 681H132V380H107ZM287 -70V-52Q323 -19 353 8T405 58T440 103T453 147Q453 168 445 182T421 204T385 212Q367 212 351 206T321 189T297 161L279 174Q295 202
322 217T384 233Q412 233 433 223T466 193T478 146Q478 121 465 97T428 50T378 2T322 -49H480V-70H287ZM123 -41L104 -31L402 661L422 650L123 -41Z" />
<glyph unicode="&#xbe;" glyph-name="threequarters" horiz-adv-x="500" d="M105 375Q77 375 55 384T15 410L32 427L38 433L43 428Q41 423 46 419T64 404Q72 400 81 398T103 396Q141 396 159 415T178 463Q178 487 165 501T127 522T70 527V547Q96 547 114 552T144
567T161 588T167 612Q167 629 159 640T138 656T107 662Q89 662 72 656T41 636L25 651Q44 668 64 675T107 683Q146 683 169 664T192 610Q192 586 176 567T131 539Q161 534 182 514T203 462Q203 425 178 400T105 375V375ZM415 9H262V25L421 231H440V29H486V9H440V-70H415V9ZM415
30V188L293 30H415ZM123 -41L104 -31L402 661L422 650L123 -41Z" />
<glyph unicode="&#xbf;" glyph-name="questiondown" horiz-adv-x="500" d="M251 316Q251 280 241 255T215 211T181 177T147 142T121 98T111 36Q111 5 120 -20T146 -63T188 -90T244 -99Q291 -99 317 -86T365 -44Q374 -30 376 -23T377 -7L381 -1L389 -7L414 -19Q393
-51 372 -74T321 -110T241 -123Q195 -123 160 -104T104 -50T84 33Q84 74 94 101T121 148T155 184T190 218T216 259T227 316V357H251V316ZM237 554Q249 554 257 546T266 526Q266 514 258 506T237 497Q226 497 218 505T209 526Q209 537 217 545T237 554V554Z" />
<glyph unicode="&#xc0;" glyph-name="Agrave" horiz-adv-x="500" d="M377 212H119L125 236H368L377 212ZM250 569L65 0H36L246 634H254L464 0H434L250 569ZM824 680L664 730L677 761L833 698L824 680Z" />
<glyph unicode="&#xc1;" glyph-name="Aacute" horiz-adv-x="500" d="M377 212H119L125 236H368L377 212ZM250 569L65 0H36L246 634H254L464 0H434L250 569ZM429 673L422 691L577 761L590 730L429 673Z" />
<glyph unicode="&#xc2;" glyph-name="Acircumflex" horiz-adv-x="500" d="M377 212H119L125 236H368L377 212ZM250 569L65 0H36L246 634H254L464 0H434L250 569ZM117 678L103 694L237 775H247L383 694L369 678L243 750L117 678Z" />
<glyph unicode="&#xc3;" glyph-name="Atilde" horiz-adv-x="500" d="M377 212H119L125 236H368L377 212ZM250 569L65 0H36L246 634H254L464 0H434L250 569ZM915 772L938 763Q916 727 898 713T849 699Q827 699 809 708T774 729T743 751T713 760Q693 760 676 749T644
712L618 718Q637 748 657 765T712 782Q733 782 750 773T782 752T814 730T850 721Q869 721 883 731T915 772Z" />
<glyph unicode="&#xc4;" glyph-name="Adieresis" horiz-adv-x="500" d="M377 212H119L125 236H368L377 212ZM250 569L65 0H36L246 634H254L464 0H434L250 569ZM434 707Q424 707 417 714T409 732Q409 743 416 750T434 758Q444 758 452 751T460 732Q460 722 453
715T434 707ZM588 707Q578 707 571 714T564 732Q564 743 571 750T588 758Q598 758 606 751T615 732Q615 722 607 715T588 707Z" />
<glyph unicode="&#xc5;" glyph-name="Aring" horiz-adv-x="500" d="M377 212H119L125 236H368L377 212ZM250 569L65 0H36L246 634H254L464 0H434L250 569ZM506 621Q483 621 464 632T434 662T422 703Q422 724 434 742T465 771T506 782Q528 782 546 772T576 743T588
700Q588 680 578 662T549 632T506 621ZM508 641Q531 641 548 658T566 701Q566 729 549 745T507 762Q484 762 464 746T444 701Q444 676 464 659T508 641Z" />
<glyph unicode="&#xc6;" glyph-name="AE" horiz-adv-x="500" d="M25 0L224 625H493V601H310V337H466V313H310V24H491V0H283V181H110L53 0H25ZM118 205H283V601H243L118 205Z" />
<glyph unicode="&#xc7;" glyph-name="Ccedilla" horiz-adv-x="500" d="M285 -10Q234 -10 192 8T118 66T69 165T51 308Q51 381 64 435T99 527T151 586T214 618T281 628Q349 628 392 595T459 505L438 495L431 492L428 498Q432 503 429 509T417 529Q391 568 356 586T279
604Q241 603 205 589T141 541T95 452T78 313Q78 238 92 182T133 89T197 33T282 14Q317 14 344 24T392 55T429 104L450 92Q422 42 384 16T285 -10V-10ZM276 -192Q253 -192 234 -188T195 -177L206 -154Q222 -161 243 -165T289 -169Q321 -169 339 -157T358 -123Q358
-104 338 -93T288 -82H269L279 0H301L294 -59Q327 -61 346 -71T375 -94T384 -119Q384 -151 358 -171T276 -192Z" />
<glyph unicode="&#xc8;" glyph-name="Egrave" horiz-adv-x="500" d="M74 0V624H421V600H101V337H366V313H101V24H418V0H74ZM827 680L667 730L680 761L836 698L827 680Z" />
<glyph unicode="&#xc9;" glyph-name="Eacute" horiz-adv-x="500" d="M74 0V624H421V600H101V337H366V313H101V24H418V0H74ZM432 673L425 691L580 761L593 730L432 673Z" />
<glyph unicode="&#xca;" glyph-name="Ecircumflex" horiz-adv-x="500" d="M74 0V624H421V600H101V337H366V313H101V24H418V0H74ZM120 678L106 694L240 775H250L386 694L372 678L246 750L120 678Z" />
<glyph unicode="&#xcb;" glyph-name="Edieresis" horiz-adv-x="500" d="M74 0V624H421V600H101V337H366V313H101V24H418V0H74ZM181 707Q171 707 164 714T156 732Q156 743 163 750T181 758Q191 758 199 751T207 732Q207 722 200 715T181 707ZM335 707Q325 707 318
714T311 732Q311 743 318 750T335 758Q345 758 353 751T362 732Q362 722 354 715T335 707Z" />
<glyph unicode="&#xcc;" glyph-name="Igrave" horiz-adv-x="500" d="M101 0V24H225V599H108V623H377V599H252V24H383V0H101ZM813 680L653 730L666 761L822 698L813 680Z" />
<glyph unicode="&#xcd;" glyph-name="Iacute" horiz-adv-x="500" d="M101 0V24H225V599H108V623H377V599H252V24H383V0H101ZM418 673L411 691L566 761L579 730L418 673Z" />
<glyph unicode="&#xce;" glyph-name="Icircumflex" horiz-adv-x="500" d="M101 0V24H225V599H108V623H377V599H252V24H383V0H101ZM362 678L348 694L482 775H492L628 694L614 678L488 750L362 678Z" />
<glyph unicode="&#xcf;" glyph-name="Idieresis" horiz-adv-x="500" d="M101 0V24H225V599H108V623H377V599H252V24H383V0H101ZM423 707Q413 707 406 714T398 732Q398 743 405 750T423 758Q433 758 441 751T449 732Q449 722 442 715T423 707ZM577 707Q567 707
560 714T553 732Q553 743 560 750T577 758Q587 758 595 751T604 732Q604 722 596 715T577 707Z" />
<glyph unicode="&#xd0;" glyph-name="Eth" horiz-adv-x="500" d="M105 -2V319H47V342H105V623H227Q268 623 299 611T353 581T391 542T415 506Q427 485 437 457T453 392T459 310Q459 235 441 177T389 79T311 19T213 -2H105ZM132 24H211Q279 24 328 59T405 159T432
307Q432 394 408 459T338 562T223 599H132V342H249V319H132V24Z" />
<glyph unicode="&#xd1;" glyph-name="Ntilde" horiz-adv-x="500" d="M70 623H93L400 64V623H426H434V616Q429 614 428 608T427 584V0H408L97 564V0H70V623ZM915 772L938 763Q916 727 898 713T849 699Q827 699 809 708T774 729T743 751T713 760Q693 760 676 749T644
712L618 718Q637 748 657 765T712 782Q733 782 750 773T782 752T814 730T850 721Q869 721 883 731T915 772Z" />
<glyph unicode="&#xd2;" glyph-name="Ograve" horiz-adv-x="500" d="M250 -11Q184 -11 139 26T70 134T47 308Q47 407 70 478T138 588T250 627Q317 627 362 589T430 479T453 308Q453 206 430 135T362 26T250 -11ZM250 13Q308 13 347 47T406 148T426 308Q426 399
406 465T347 567T250 603Q193 603 154 567T94 465T74 308Q74 214 94 148T153 48T250 13ZM824 680L664 730L677 761L833 698L824 680Z" />
<glyph unicode="&#xd3;" glyph-name="Oacute" horiz-adv-x="500" d="M250 -11Q184 -11 139 26T70 134T47 308Q47 407 70 478T138 588T250 627Q317 627 362 589T430 479T453 308Q453 206 430 135T362 26T250 -11ZM250 13Q308 13 347 47T406 148T426 308Q426 399
406 465T347 567T250 603Q193 603 154 567T94 465T74 308Q74 214 94 148T153 48T250 13ZM429 673L422 691L577 761L590 730L429 673Z" />
<glyph unicode="&#xd4;" glyph-name="Ocircumflex" horiz-adv-x="500" d="M250 -11Q184 -11 139 26T70 134T47 308Q47 407 70 478T138 588T250 627Q317 627 362 589T430 479T453 308Q453 206 430 135T362 26T250 -11ZM250 13Q308 13 347 47T406 148T426 308Q426
399 406 465T347 567T250 603Q193 603 154 567T94 465T74 308Q74 214 94 148T153 48T250 13ZM117 678L103 694L237 775H247L383 694L369 678L243 750L117 678Z" />
<glyph unicode="&#xd5;" glyph-name="Otilde" horiz-adv-x="500" d="M250 -11Q184 -11 139 26T70 134T47 308Q47 407 70 478T138 588T250 627Q317 627 362 589T430 479T453 308Q453 206 430 135T362 26T250 -11ZM250 13Q308 13 347 47T406 148T426 308Q426 399
406 465T347 567T250 603Q193 603 154 567T94 465T74 308Q74 214 94 148T153 48T250 13ZM915 772L938 763Q916 727 898 713T849 699Q827 699 809 708T774 729T743 751T713 760Q693 760 676 749T644 712L618 718Q637 748 657 765T712 782Q733 782 750 773T782 752T814
730T850 721Q869 721 883 731T915 772Z" />
<glyph unicode="&#xd6;" glyph-name="Odieresis" horiz-adv-x="500" d="M250 -11Q184 -11 139 26T70 134T47 308Q47 407 70 478T138 588T250 627Q317 627 362 589T430 479T453 308Q453 206 430 135T362 26T250 -11ZM250 13Q308 13 347 47T406 148T426 308Q426
399 406 465T347 567T250 603Q193 603 154 567T94 465T74 308Q74 214 94 148T153 48T250 13ZM434 707Q424 707 417 714T409 732Q409 743 416 750T434 758Q444 758 452 751T460 732Q460 722 453 715T434 707ZM588 707Q578 707 571 714T564 732Q564 743 571 750T588
758Q598 758 606 751T615 732Q615 722 607 715T588 707Z" />
<glyph unicode="&#xd7;" glyph-name="multiply" horiz-adv-x="500" d="M393 153L254 297L117 156L101 173L238 316L101 461L120 480L256 337L395 481L415 463L273 317L412 171L393 153Z" />
<glyph unicode="&#xd8;" glyph-name="Oslash" horiz-adv-x="500" d="M74 -36L56 -26L429 676L447 666L74 -36ZM250 -11Q184 -11 139 26T70 134T47 308Q47 407 70 478T138 588T250 627Q317 627 362 589T430 479T453 308Q453 206 430 135T362 26T250 -11ZM250 13Q308
13 347 47T406 148T426 308Q426 399 406 465T347 567T250 603Q193 603 154 567T94 465T74 308Q74 214 94 148T153 48T250 13Z" />
<glyph unicode="&#xd9;" glyph-name="Ugrave" horiz-adv-x="500" d="M251 -11Q163 -11 117 48T70 215V623H97H105V616Q100 614 99 608T98 584V214Q98 119 137 66T252 13Q329 13 368 63T408 217V623H434V218Q434 139 413 89T352 14T251 -11V-11ZM824 680L664 730L677
761L833 698L824 680Z" />
<glyph unicode="&#xda;" glyph-name="Uacute" horiz-adv-x="500" d="M251 -11Q163 -11 117 48T70 215V623H97H105V616Q100 614 99 608T98 584V214Q98 119 137 66T252 13Q329 13 368 63T408 217V623H434V218Q434 139 413 89T352 14T251 -11V-11ZM429 673L422 691L577
761L590 730L429 673Z" />
<glyph unicode="&#xdb;" glyph-name="Ucircumflex" horiz-adv-x="500" d="M251 -11Q163 -11 117 48T70 215V623H97H105V616Q100 614 99 608T98 584V214Q98 119 137 66T252 13Q329 13 368 63T408 217V623H434V218Q434 139 413 89T352 14T251 -11V-11ZM117 678L103
694L237 775H247L383 694L369 678L243 750L117 678Z" />
<glyph unicode="&#xdc;" glyph-name="Udieresis" horiz-adv-x="500" d="M251 -11Q163 -11 117 48T70 215V623H97H105V616Q100 614 99 608T98 584V214Q98 119 137 66T252 13Q329 13 368 63T408 217V623H434V218Q434 139 413 89T352 14T251 -11V-11ZM434 707Q424
707 417 714T409 732Q409 743 416 750T434 758Q444 758 452 751T460 732Q460 722 453 715T434 707ZM588 707Q578 707 571 714T564 732Q564 743 571 750T588 758Q598 758 606 751T615 732Q615 722 607 715T588 707Z" />
<glyph unicode="&#xdd;" glyph-name="Yacute" horiz-adv-x="500" d="M245 0V276L48 623H78L257 304L424 623H453L271 276V0H245ZM429 673L422 691L577 761L590 730L429 673Z" />
<glyph unicode="&#xde;" glyph-name="Thorn" horiz-adv-x="500" d="M69 0V623H102Q103 622 103 622T103 620Q103 617 100 613T96 599V485H259Q324 485 365 464T426 408T446 330Q446 287 427 253T367 198T264 177H96V0H69ZM96 201H264Q322 201 356 219T404 266T419
328Q419 362 404 392T354 442T257 461H96V201Z" />
<glyph unicode="&#xdf;" glyph-name="germandbls" horiz-adv-x="500" d="M281 -10Q252 -10 226 -3T177 21L192 42Q207 30 231 22T277 14Q313 14 341 26T388 61T417 114T427 179Q427 213 418 242T387 293T331 327T244 340H214V364H250Q271 364 291 370T327 389T356
419T376 458T383 505Q383 535 373 560T345 605T300 634T242 645Q198 645 164 621T111 548T92 425V0H65V423Q65 506 87 560T149 642T241 669Q295 669 332 647T390 588T410 503Q410 470 398 441T364 391T314 356Q348 349 374 335T418 300T445 249T454 181Q454 128
434 85T376 16T281 -10Z" />
<glyph unicode="&#xe0;" glyph-name="agrave" horiz-adv-x="500" d="M211 -11Q144 -11 109 26T73 115Q73 149 88 175T130 220T195 248T279 258Q296 258 317 258T362 256T407 251L413 229Q395 232 372 233T325 236T285 237Q238 237 203 229T145 204T110 165T98
114Q98 91 105 72T126 39T163 18T216 10Q261 10 295 25T353 68T389 134T401 219Q401 295 389 343T344 414T253 437Q217 437 184 423T118 376L101 392Q133 424 169 441T252 459Q298 459 330 447T383 408T414 340T424 239V0H399V114Q392 88 377 66T337 26T281 -1T211
-11ZM512 512L407 646L432 666L525 523L512 512Z" />
<glyph unicode="&#xe1;" glyph-name="aacute" horiz-adv-x="500" d="M211 -11Q144 -11 109 26T73 115Q73 149 88 175T130 220T195 248T279 258Q296 258 317 258T362 256T407 251L413 229Q395 232 372 233T325 236T285 237Q238 237 203 229T145 204T110 165T98
114Q98 91 105 72T126 39T163 18T216 10Q261 10 295 25T353 68T389 134T401 219Q401 295 389 343T344 414T253 437Q217 437 184 423T118 376L101 392Q133 424 169 441T252 459Q298 459 330 447T383 408T414 340T424 239V0H399V114Q392 88 377 66T337 26T281 -1T211
-11ZM487 768L474 779L567 922L592 902L487 768Z" />
<glyph unicode="&#xe2;" glyph-name="acircumflex" horiz-adv-x="500" d="M211 -11Q144 -11 109 26T73 115Q73 149 88 175T130 220T195 248T279 258Q296 258 317 258T362 256T407 251L413 229Q395 232 372 233T325 236T285 237Q238 237 203 229T145 204T110 165T98
114Q98 91 105 72T126 39T163 18T216 10Q261 10 295 25T353 68T389 134T401 219Q401 295 389 343T344 414T253 437Q217 437 184 423T118 376L101 392Q133 424 169 441T252 459Q298 459 330 447T383 408T414 340T424 239V0H399V114Q392 88 377 66T337 26T281 -1T211
-11ZM114 521L99 533L242 673H258L401 533L386 521L250 648L114 521Z" />
<glyph unicode="&#xe3;" glyph-name="atilde" horiz-adv-x="500" d="M211 -11Q144 -11 109 26T73 115Q73 149 88 175T130 220T195 248T279 258Q296 258 317 258T362 256T407 251L413 229Q395 232 372 233T325 236T285 237Q238 237 203 229T145 204T110 165T98
114Q98 91 105 72T126 39T163 18T216 10Q261 10 295 25T353 68T389 134T401 219Q401 295 389 343T344 414T253 437Q217 437 184 423T118 376L101 392Q133 424 169 441T252 459Q298 459 330 447T383 408T414 340T424 239V0H399V114Q392 88 377 66T337 26T281 -1T211
-11ZM655 658L678 649Q656 613 638 599T589 585Q567 585 549 594T514 615T483 637T453 646Q433 646 416 635T384 598L358 604Q377 634 397 651T452 668Q473 668 490 659T522 638T554 616T590 607Q609 607 623 617T655 658Z" />
<glyph unicode="&#xe4;" glyph-name="adieresis" horiz-adv-x="500" d="M211 -11Q144 -11 109 26T73 115Q73 149 88 175T130 220T195 248T279 258Q296 258 317 258T362 256T407 251L413 229Q395 232 372 233T325 236T285 237Q238 237 203 229T145 204T110 165T98
114Q98 91 105 72T126 39T163 18T216 10Q261 10 295 25T353 68T389 134T401 219Q401 295 389 343T344 414T253 437Q217 437 184 423T118 376L101 392Q133 424 169 441T252 459Q298 459 330 447T383 408T414 340T424 239V0H399V114Q392 88 377 66T337 26T281 -1T211
-11ZM429 589Q419 589 412 596T404 614Q404 625 411 632T429 640Q439 640 447 633T455 614Q455 604 448 597T429 589ZM583 589Q573 589 566 596T559 614Q559 625 566 632T583 640Q593 640 601 633T610 614Q610 604 602 597T583 589Z" />
<glyph unicode="&#xe5;" glyph-name="aring" horiz-adv-x="500" d="M211 -11Q144 -11 109 26T73 115Q73 149 88 175T130 220T195 248T279 258Q296 258 317 258T362 256T407 251L413 229Q395 232 372 233T325 236T285 237Q238 237 203 229T145 204T110 165T98 114Q98
91 105 72T126 39T163 18T216 10Q261 10 295 25T353 68T389 134T401 219Q401 295 389 343T344 414T253 437Q217 437 184 423T118 376L101 392Q133 424 169 441T252 459Q298 459 330 447T383 408T414 340T424 239V0H399V114Q392 88 377 66T337 26T281 -1T211 -11ZM511
521Q488 521 469 532T439 562T427 603Q427 624 439 642T470 671T511 682Q533 682 551 672T581 643T593 600Q593 580 583 562T554 532T511 521ZM513 541Q536 541 553 558T571 601Q571 629 554 645T512 662Q489 662 469 646T449 601Q449 576 469 559T513 541Z" />
<glyph unicode="&#xe6;" glyph-name="ae" horiz-adv-x="500" d="M139 -10Q103 -10 78 6T39 51T25 119Q25 156 37 181T76 224T144 249T242 260Q242 322 231 361T197 420T139 439Q114 439 93 428T57 400L40 413Q60 437 85 449T144 461Q175 461 197 448T234 409T254
349Q261 380 278 405T318 445T368 461Q411 461 434 438T467 372T477 266V243L263 237V173Q263 137 272 107T298 56T335 24T379 12Q403 12 419 18T446 33T465 51L481 37Q465 16 440 3T379 -10Q346 -10 319 7T273 53T251 112Q247 80 234 52T198 7T139 -10ZM141 12Q183
12 204 43T232 125T240 236Q170 233 128 222T66 186T47 117Q47 83 58 60T91 24T141 12ZM263 259L454 265Q454 319 448 358T423 418T366 439Q337 439 314 416T277 353T263 259Z" />
<glyph unicode="&#xe7;" glyph-name="ccedilla" horiz-adv-x="500" d="M275 -11Q227 -11 189 7T124 57T83 132T68 228Q68 279 84 321T128 394T195 441T278 458Q339 458 379 440T447 381L432 366L426 360L421 365Q423 370 420 376T405 394Q384 414 355 424T274
435Q238 435 206 421T148 380T108 316T93 233Q93 182 106 141T145 71T204 27T279 12Q306 12 332 20T383 43T425 80L440 61Q406 25 365 7T275 -11V-11ZM282 -192Q259 -192 240 -188T201 -177L212 -154Q228 -161 249 -165T295 -169Q327 -169 345 -157T364 -123Q364
-104 344 -93T294 -82H275L285 0H307L300 -59Q333 -61 352 -71T381 -94T390 -119Q390 -151 364 -171T282 -192Z" />
<glyph unicode="&#xe8;" glyph-name="egrave" horiz-adv-x="500" d="M264 -10Q218 -10 181 6T117 53T76 127T61 223Q61 280 75 324T116 399T176 444T250 460Q289 460 322 447T380 409T419 344T433 253Q433 245 433 243T432 232H85Q86 178 98 138T134 69T190 27T264
13Q297 13 322 21T367 45T404 80L423 66Q404 43 380 26T327 -1T264 -10ZM87 255H408Q408 300 397 334T365 391T316 425T254 437Q214 437 184 423T132 384T100 326T87 255ZM522 512L417 646L442 666L535 523L522 512Z" />
<glyph unicode="&#xe9;" glyph-name="eacute" horiz-adv-x="500" d="M264 -10Q218 -10 181 6T117 53T76 127T61 223Q61 280 75 324T116 399T176 444T250 460Q289 460 322 447T380 409T419 344T433 253Q433 245 433 243T432 232H85Q86 178 98 138T134 69T190 27T264
13Q297 13 322 21T367 45T404 80L423 66Q404 43 380 26T327 -1T264 -10ZM87 255H408Q408 300 397 334T365 391T316 425T254 437Q214 437 184 423T132 384T100 326T87 255ZM497 768L484 779L577 922L602 902L497 768Z" />
<glyph unicode="&#xea;" glyph-name="ecircumflex" horiz-adv-x="500" d="M264 -10Q218 -10 181 6T117 53T76 127T61 223Q61 280 75 324T116 399T176 444T250 460Q289 460 322 447T380 409T419 344T433 253Q433 245 433 243T432 232H85Q86 178 98 138T134 69T190
27T264 13Q297 13 322 21T367 45T404 80L423 66Q404 43 380 26T327 -1T264 -10ZM87 255H408Q408 300 397 334T365 391T316 425T254 437Q214 437 184 423T132 384T100 326T87 255ZM124 521L109 533L252 673H268L411 533L396 521L260 648L124 521Z" />
<glyph unicode="&#xeb;" glyph-name="edieresis" horiz-adv-x="500" d="M264 -10Q218 -10 181 6T117 53T76 127T61 223Q61 280 75 324T116 399T176 444T250 460Q289 460 322 447T380 409T419 344T433 253Q433 245 433 243T432 232H85Q86 178 98 138T134 69T190
27T264 13Q297 13 322 21T367 45T404 80L423 66Q404 43 380 26T327 -1T264 -10ZM87 255H408Q408 300 397 334T365 391T316 425T254 437Q214 437 184 423T132 384T100 326T87 255ZM183 589Q173 589 166 596T158 614Q158 625 165 632T183 640Q193 640 201 633T209
614Q209 604 202 597T183 589ZM337 589Q327 589 320 596T313 614Q313 625 320 632T337 640Q347 640 355 633T364 614Q364 604 356 597T337 589Z" />
<glyph unicode="&#xec;" glyph-name="igrave" horiz-adv-x="500" d="M110 0V23H240V426H116V449H265V23H386V0H110ZM512 512L407 646L432 666L525 523L512 512Z" />
<glyph unicode="&#xed;" glyph-name="iacute" horiz-adv-x="500" d="M110 0V23H240V426H116V449H265V23H386V0H110ZM490 527L477 538L570 681L595 661L490 527Z" />
<glyph unicode="&#xee;" glyph-name="icircumflex" horiz-adv-x="500" d="M110 0V23H240V426H116V449H265V23H386V0H110ZM114 521L99 533L242 673H258L401 533L386 521L250 648L114 521Z" />
<glyph unicode="&#xef;" glyph-name="idieresis" horiz-adv-x="500" d="M110 0V23H240V426H116V449H265V23H386V0H110ZM422 589Q412 589 405 596T397 614Q397 625 404 632T422 640Q432 640 440 633T448 614Q448 604 441 597T422 589ZM576 589Q566 589 559 596T552
614Q552 625 559 632T576 640Q586 640 594 633T603 614Q603 604 595 597T576 589Z" />
<glyph unicode="&#xf0;" glyph-name="eth" horiz-adv-x="500" d="M256 -12Q213 -12 176 5T110 54T66 129T50 223Q50 275 65 318T107 393T168 442T242 460Q280 460 311 449T368 419T408 374Q394 419 367 467T294 563L155 524L147 545L277 581Q262 594 248 609T217
638T182 661L205 673Q228 660 254 634T301 588L421 623L428 603L319 570Q347 538 371 503T412 427T440 344T450 253Q450 191 438 142T403 59T343 6T256 -12ZM258 11Q301 11 332 27T384 74T415 149T425 248Q425 287 415 317T386 370T344 408T296 430T245 438Q210
438 180 423T126 380T89 311T75 222Q75 176 88 137T126 70T184 27T258 11Z" />
<glyph unicode="&#xf1;" glyph-name="ntilde" horiz-adv-x="500" d="M86 0V449H111V338Q124 376 149 402T208 443T283 457Q319 457 350 442T400 386T420 269V0H395V267Q395 331 382 367T342 418T275 434Q238 434 208 420T157 381T123 324T111 255V0H86ZM414 658L437
649Q415 613 397 599T348 585Q326 585 308 594T273 615T242 637T212 646Q192 646 175 635T143 598L117 604Q136 634 156 651T211 668Q232 668 249 659T281 638T313 616T349 607Q368 607 382 617T414 658Z" />
<glyph unicode="&#xf2;" glyph-name="ograve" horiz-adv-x="500" d="M250 -8Q188 -8 146 21T81 103T59 225Q59 295 81 347T145 429T250 459Q312 459 354 430T419 348T441 225Q441 156 419 104T355 22T250 -8ZM250 15Q305 15 342 42T397 118T416 226Q416 291 395
338T337 410T250 436Q197 436 160 409T103 335T84 226Q84 163 103 116T159 42T250 15ZM512 512L407 646L432 666L525 523L512 512Z" />
<glyph unicode="&#xf3;" glyph-name="oacute" horiz-adv-x="500" d="M250 -8Q188 -8 146 21T81 103T59 225Q59 295 81 347T145 429T250 459Q312 459 354 430T419 348T441 225Q441 156 419 104T355 22T250 -8ZM250 15Q305 15 342 42T397 118T416 226Q416 291 395
338T337 410T250 436Q197 436 160 409T103 335T84 226Q84 163 103 116T159 42T250 15ZM487 768L474 779L567 922L592 902L487 768Z" />
<glyph unicode="&#xf4;" glyph-name="ocircumflex" horiz-adv-x="500" d="M250 -8Q188 -8 146 21T81 103T59 225Q59 295 81 347T145 429T250 459Q312 459 354 430T419 348T441 225Q441 156 419 104T355 22T250 -8ZM250 15Q305 15 342 42T397 118T416 226Q416 291
395 338T337 410T250 436Q197 436 160 409T103 335T84 226Q84 163 103 116T159 42T250 15ZM114 521L99 533L242 673H258L401 533L386 521L250 648L114 521Z" />
<glyph unicode="&#xf5;" glyph-name="otilde" horiz-adv-x="500" d="M250 -8Q188 -8 146 21T81 103T59 225Q59 295 81 347T145 429T250 459Q312 459 354 430T419 348T441 225Q441 156 419 104T355 22T250 -8ZM250 15Q305 15 342 42T397 118T416 226Q416 291 395
338T337 410T250 436Q197 436 160 409T103 335T84 226Q84 163 103 116T159 42T250 15ZM655 658L678 649Q656 613 638 599T589 585Q567 585 549 594T514 615T483 637T453 646Q433 646 416 635T384 598L358 604Q377 634 397 651T452 668Q473 668 490 659T522 638T554
616T590 607Q609 607 623 617T655 658Z" />
<glyph unicode="&#xf6;" glyph-name="odieresis" horiz-adv-x="500" d="M250 -8Q188 -8 146 21T81 103T59 225Q59 295 81 347T145 429T250 459Q312 459 354 430T419 348T441 225Q441 156 419 104T355 22T250 -8ZM250 15Q305 15 342 42T397 118T416 226Q416 291
395 338T337 410T250 436Q197 436 160 409T103 335T84 226Q84 163 103 116T159 42T250 15ZM429 589Q419 589 412 596T404 614Q404 625 411 632T429 640Q439 640 447 633T455 614Q455 604 448 597T429 589ZM583 589Q573 589 566 596T559 614Q559 625 566 632T583
640Q593 640 601 633T610 614Q610 604 602 597T583 589Z" />
<glyph unicode="&#xf7;" glyph-name="divide" horiz-adv-x="500" d="M77 303V327H426V303H77ZM255 455Q247 455 241 461T234 477Q234 486 240 492T255 499Q264 499 270 492T277 477Q277 468 271 462T255 455ZM255 126Q247 126 241 132T234 148Q234 157 240 163T255
170Q264 170 270 163T277 148Q277 139 271 133T255 126Z" />
<glyph unicode="&#xf8;" glyph-name="oslash" horiz-adv-x="500" d="M102 -56L85 -45L394 515L411 504L102 -56ZM250 -8Q188 -8 146 21T81 103T59 225Q59 295 81 347T145 429T250 459Q312 459 354 430T419 348T441 225Q441 156 419 104T355 22T250 -8ZM250 15Q305
15 342 42T397 118T416 226Q416 291 395 338T337 410T250 436Q197 436 160 409T103 335T84 226Q84 163 103 116T159 42T250 15Z" />
<glyph unicode="&#xf9;" glyph-name="ugrave" horiz-adv-x="500" d="M234 -11Q209 -11 187 -4T145 18T111 57T90 114T82 191L83 449H107V191Q107 140 117 106T146 51T190 22T247 13Q279 13 306 24T353 59T385 117T397 197V449H422V92Q422 74 423 46T432 0H407Q402
12 400 28T397 62T396 89Q387 71 375 54T345 22T299 -2T234 -11ZM512 512L407 646L432 666L525 523L512 512Z" />
<glyph unicode="&#xfa;" glyph-name="uacute" horiz-adv-x="500" d="M234 -11Q209 -11 187 -4T145 18T111 57T90 114T82 191L83 449H107V191Q107 140 117 106T146 51T190 22T247 13Q279 13 306 24T353 59T385 117T397 197V449H422V92Q422 74 423 46T432 0H407Q402
12 400 28T397 62T396 89Q387 71 375 54T345 22T299 -2T234 -11ZM487 768L474 779L567 922L592 902L487 768Z" />
<glyph unicode="&#xfb;" glyph-name="ucircumflex" horiz-adv-x="500" d="M234 -11Q209 -11 187 -4T145 18T111 57T90 114T82 191L83 449H107V191Q107 140 117 106T146 51T190 22T247 13Q279 13 306 24T353 59T385 117T397 197V449H422V92Q422 74 423 46T432 0H407Q402
12 400 28T397 62T396 89Q387 71 375 54T345 22T299 -2T234 -11ZM114 521L99 533L242 673H258L401 533L386 521L250 648L114 521Z" />
<glyph unicode="&#xfc;" glyph-name="udieresis" horiz-adv-x="500" d="M234 -11Q209 -11 187 -4T145 18T111 57T90 114T82 191L83 449H107V191Q107 140 117 106T146 51T190 22T247 13Q279 13 306 24T353 59T385 117T397 197V449H422V92Q422 74 423 46T432 0H407Q402
12 400 28T397 62T396 89Q387 71 375 54T345 22T299 -2T234 -11ZM429 589Q419 589 412 596T404 614Q404 625 411 632T429 640Q439 640 447 633T455 614Q455 604 448 597T429 589ZM583 589Q573 589 566 596T559 614Q559 625 566 632T583 640Q593 640 601 633T610
614Q610 604 602 597T583 589Z" />
<glyph unicode="&#xfd;" glyph-name="yacute" horiz-adv-x="500" d="M123 -174Q91 -174 67 -164T22 -135L42 -117L48 -111L53 -116Q51 -121 56 -125T74 -140Q85 -146 99 -148T127 -151Q154 -151 174 -141T214 -97T258 5L354 275Q370 320 384 361T403 449H432Q425
403 410 360T378 270L264 -52Q238 -122 204 -148T123 -174V-174ZM61 449H88L268 0L254 -32L61 449ZM490 768L477 779L570 922L595 902L490 768Z" />
<glyph unicode="&#xfe;" glyph-name="thorn" horiz-adv-x="500" d="M73 665H96H104V658Q99 656 98 650T97 626V344Q109 375 131 401T188 443T265 459Q300 459 332 445T390 403T429 332T444 232Q444 167 430 121T390 45T332 2T263 -12Q227 -12 194 2T135 44T98
109V-167H73V665ZM258 10Q290 10 319 22T370 61T406 129T419 229Q419 299 398 344T342 413T262 436Q226 436 196 424T144 384T110 315T97 213Q97 164 108 129T138 71T178 35T221 16T258 10V10Z" />
<glyph unicode="&#xff;" glyph-name="ydieresis" horiz-adv-x="500" d="M123 -174Q91 -174 67 -164T22 -135L42 -117L48 -111L53 -116Q51 -121 56 -125T74 -140Q85 -146 99 -148T127 -151Q154 -151 174 -141T214 -97T258 5L354 275Q370 320 384 361T403 449H432Q425
403 410 360T378 270L264 -52Q238 -122 204 -148T123 -174V-174ZM61 449H88L268 0L254 -32L61 449ZM176 589Q166 589 159 596T151 614Q151 625 158 632T176 640Q186 640 194 633T202 614Q202 604 195 597T176 589ZM330 589Q320 589 313 596T306 614Q306 625 313
632T330 640Q340 640 348 633T357 614Q357 604 349 597T330 589Z" />
<glyph unicode="&#x2013;" glyph-name="endash" horiz-adv-x="500" d="M76 301V328H426V301H76Z" />
<glyph unicode="&#x2014;" glyph-name="emdash" horiz-adv-x="500" d="M10 301V328H490V301H10Z" />
<glyph unicode="&#x2018;" glyph-name="quoteleft" horiz-adv-x="500" d="M284 631L300 614Q282 597 270 575T253 533T247 499Q247 485 251 478T259 465T268 456T272 443Q272 429 265 422T243 414Q231 414 223 424T215 451Q215 478 221 509T243 573T284 631Z" />
<glyph unicode="&#x2019;" glyph-name="quoteright" horiz-adv-x="500" d="M216 414L200 431Q219 449 230 470T247 512T253 546Q253 560 249 567T241 580T232 589T228 602Q228 616 236 623T257 631Q269 631 277 621T285 594Q285 568 279 536T257 473T216 414Z" />
<glyph unicode="&#x201a;" glyph-name="quotesinglbase" horiz-adv-x="500" d="M216 -146L200 -129Q219 -111 230 -90T247 -48T253 -14Q253 0 249 7T241 20T232 29T228 42Q228 56 236 63T257 71Q269 71 277 61T285 34Q285 8 279 -24T257 -87T216 -146Z" />
<glyph unicode="&#x201c;" glyph-name="quotedblleft" horiz-adv-x="500" d="M184 631L200 614Q182 597 170 575T153 533T147 499Q147 485 151 478T159 465T168 456T172 443Q172 429 165 422T143 414Q131 414 123 424T115 451Q115 478 121 509T143 573T184 631ZM389
631L405 614Q387 597 375 575T358 533T352 499Q352 485 356 478T364 465T373 456T377 443Q377 429 370 422T348 414Q336 414 328 424T320 451Q320 478 326 509T348 573T389 631Z" />
<glyph unicode="&#x201d;" glyph-name="quotedblright" horiz-adv-x="500" d="M324 418L308 435Q327 453 338 474T355 516T361 550Q361 564 357 571T349 584T340 593T336 606Q336 620 344 627T365 635Q377 635 385 625T393 598Q393 572 387 540T365 477T324 418ZM119
418L103 435Q122 453 133 474T150 516T156 550Q156 564 152 571T144 584T135 593T131 606Q131 620 139 627T160 635Q172 635 180 625T188 598Q188 572 182 540T160 477T119 418Z" />
<glyph unicode="&#x201e;" glyph-name="quotedblbase" horiz-adv-x="500" d="M111 -146L95 -129Q114 -111 125 -90T142 -48T148 -14Q148 0 144 7T136 20T127 29T123 42Q123 56 131 63T152 71Q164 71 172 61T180 34Q180 8 174 -24T152 -88T111 -146ZM321 -146L305
-129Q324 -111 335 -90T352 -48T358 -14Q358 0 354 7T346 20T337 29T333 42Q333 56 341 63T362 71Q374 71 382 61T390 34Q390 8 384 -24T362 -88T321 -146Z" />
<glyph unicode="&#x2022;" glyph-name="bullet" horiz-adv-x="500" d="M250 255Q239 255 229 260T214 275T208 296Q208 308 214 317T229 332T250 338Q262 338 271 333T287 318T293 296Q293 285 288 276T272 261T250 255Z" />
<glyph unicode="&#x2039;" glyph-name="guilsinglleft" horiz-adv-x="500" d="M312 73L160 235V250L304 389L320 371L190 242L329 89L312 73Z" />
<glyph unicode="&#x203a;" glyph-name="guilsinglright" horiz-adv-x="500" d="M180 73L163 89L302 242L172 371L188 389L332 250V235L180 73Z" />
</font>
</defs>
</svg>
